<svg width="100" height="100" viewBox="0 0 100 100" fill="none" xmlns="http://www.w3.org/2000/svg">
<circle cx="50" cy="50" r="48.5" fill="#D9D9D9" stroke="#F9F9F9" stroke-width="3"/>
<path d="M19.9167 85C19.9167 85 14 85 14 79.0833C14 73.1667 19.9167 55.4167 49.5 55.4167C79.0833 55.4167 85 73.1667 85 79.0833C85 85 79.0833 85 79.0833 85H19.9167ZM49.5 49.5C54.2076 49.5 58.7224 47.6299 62.0511 44.3011C65.3799 40.9724 67.25 36.4576 67.25 31.75C67.25 27.0424 65.3799 22.5276 62.0511 19.1989C58.7224 15.8701 54.2076 14 49.5 14C44.7924 14 40.2776 15.8701 36.9489 19.1989C33.6201 22.5276 31.75 27.0424 31.75 31.75C31.75 36.4576 33.6201 40.9724 36.9489 44.3011C40.2776 47.6299 44.7924 49.5 49.5 49.5Z" fill="#F9F9F9"/>
</svg>
